<svg xmlns="http://www.w3.org/2000/svg" version="1.1" xmlns:xlink="http://www.w3.org/1999/xlink" xmlns:svgjs="http://svgjs.dev/svgjs" width="1500" height="960" viewBox="0 0 1500 960"><g transform="matrix(1,0,0,1,0.15999999999996817,-0.44800000000009277)"><svg viewBox="0 0 375 240" data-background-color="#faecdc" preserveAspectRatio="xMidYMid meet" height="960" width="1500" xmlns="http://www.w3.org/2000/svg" xmlns:xlink="http://www.w3.org/1999/xlink"><g id="tight-bounds" transform="matrix(1,0,0,1,-0.03976000000000113,0.11213000000000761)"><svg viewBox="0 0 375.07953 239.77586000000002" height="239.77586000000002" width="375.07953"><g><svg></svg></g><g><svg viewBox="0 0 375.07953 239.77586000000002" height="239.77586000000002" width="375.07953"><g transform="matrix(1,0,0,1,-10.22024,-7.424129999999991)"><path d="M10.22 239.776v-232.352h375.08l0 211.6-12.998 0v-198.602h-349.084v206.356l93.178 0 0 12.998z" fill="#e13f2a" fill-rule="nonzero" stroke="none" stroke-width="1" stroke-linecap="butt" stroke-linejoin="miter" stroke-miterlimit="10" stroke-dasharray="" stroke-dashoffset="0" font-family="none" font-weight="none" font-size="none" text-anchor="none" style="mix-blend-mode: normal" data-fill-palette-color="tertiary"></path><g><path d="M155.389 238.918v0c0-0.11 0.073-0.207 0.22-0.292 0.147-0.081 0.317-0.154 0.512-0.22 0.191-0.062 0.387-0.121 0.589-0.176 0.202-0.055 0.349-0.11 0.44-0.165v0-15.079c-0.092-0.055-0.238-0.106-0.44-0.154-0.202-0.044-0.398-0.103-0.589-0.176-0.194-0.073-0.365-0.152-0.512-0.237-0.147-0.081-0.22-0.176-0.22-0.286v0c0-0.11 0.033-0.248 0.099-0.412 0.062-0.165 0.204-0.248 0.424-0.248v0h2.173c0.477 0 1.088-0.033 1.833-0.099 0.741-0.062 1.497-0.094 2.267-0.094v0c1.523 0 2.84 0.196 3.952 0.589 1.108 0.396 2.025 0.97 2.751 1.723 0.723 0.752 1.258 1.664 1.607 2.735 0.349 1.075 0.523 2.291 0.523 3.648v0c0 1.211-0.183 2.398-0.55 3.561-0.367 1.167-0.936 2.209-1.706 3.126-0.77 0.917-1.743 1.655-2.917 2.212-1.174 0.561-2.559 0.842-4.155 0.842v0c-0.275 0-0.532-0.009-0.77-0.028-0.238-0.018-0.495-0.031-0.771-0.038-0.275-0.011-0.582-0.026-0.919-0.044-0.341-0.018-0.75-0.028-1.227-0.028v0h-2.091c-0.22 0-0.361-0.083-0.424-0.247-0.066-0.165-0.099-0.303-0.099-0.413zM159.599 222.766v15.491c0.165 0 0.422 0.013 0.77 0.039 0.349 0.029 0.752 0.044 1.211 0.044v0c2.256 0 3.986-0.721 5.189-2.163 1.2-1.438 1.8-3.414 1.8-5.927v0c0-0.991-0.123-1.941-0.369-2.85-0.249-0.906-0.649-1.704-1.199-2.394-0.55-0.686-1.26-1.231-2.13-1.635-0.873-0.404-1.924-0.605-3.153-0.605v0zM172.916 234.02v0c0-1.064 0.147-2.054 0.441-2.972 0.293-0.917 0.712-1.715 1.254-2.394 0.539-0.679 1.198-1.216 1.976-1.612 0.781-0.393 1.649-0.589 2.603-0.589v0c1.046 0 1.88 0.205 2.504 0.617 0.624 0.415 1.106 0.943 1.447 1.584 0.338 0.642 0.561 1.343 0.672 2.103 0.11 0.763 0.174 1.502 0.192 2.217v0c0 0.275-0.119 0.431-0.358 0.468-0.238 0.037-0.486 0.055-0.742 0.055v0h-7.457c0.037 0.624 0.134 1.229 0.291 1.816 0.154 0.587 0.383 1.11 0.688 1.569 0.301 0.459 0.686 0.829 1.156 1.111 0.466 0.286 1.011 0.429 1.634 0.429v0c0.679 0 1.229-0.051 1.651-0.154 0.422-0.099 0.77-0.209 1.046-0.33 0.275-0.117 0.51-0.227 0.704-0.33 0.191-0.099 0.396-0.149 0.617-0.149v0c0.257 0 0.385 0.101 0.385 0.303v0c0 0.238-0.138 0.49-0.413 0.754-0.275 0.268-0.648 0.515-1.117 0.743-0.466 0.231-1.005 0.416-1.618 0.556-0.616 0.136-1.264 0.204-1.942 0.203v0c-0.972 0-1.811-0.165-2.515-0.495-0.708-0.33-1.291-0.77-1.75-1.321-0.459-0.55-0.798-1.189-1.018-1.915-0.22-0.723-0.33-1.479-0.331-2.267zM175.448 232.259l5.833-0.193c-0.018-0.569-0.064-1.104-0.137-1.607-0.073-0.506-0.211-0.943-0.413-1.309-0.202-0.367-0.495-0.66-0.881-0.881-0.385-0.22-0.89-0.33-1.513-0.33v0c-0.917 0-1.609 0.407-2.075 1.222-0.47 0.818-0.741 1.851-0.814 3.098zM186.757 238.423l0.027-16.978c-0.404-0.055-0.719-0.138-0.946-0.247-0.231-0.11-0.347-0.22-0.347-0.33v0c0-0.238 0.106-0.437 0.319-0.595 0.209-0.154 0.466-0.273 0.771-0.358 0.301-0.081 0.622-0.139 0.963-0.176 0.338-0.037 0.644-0.055 0.919-0.055v0c0.147 0 0.281 0.009 0.401 0.028 0.117 0.018 0.194 0.092 0.232 0.22v0 4.21l-0.221 3.962c0.532-0.495 1.124-0.895 1.778-1.2 0.649-0.301 1.378-0.451 2.185-0.451v0c0.697 0 1.363 0.128 1.997 0.385 0.631 0.257 1.185 0.633 1.662 1.129 0.477 0.495 0.862 1.104 1.156 1.827 0.293 0.726 0.44 1.548 0.44 2.465v0c0 0.917-0.141 1.838-0.424 2.763-0.286 0.928-0.723 1.763-1.309 2.503-0.587 0.745-1.321 1.346-2.202 1.806-0.88 0.459-1.917 0.688-3.109 0.687v0c-0.991 0-1.862-0.171-2.614-0.511-0.752-0.338-1.312-0.699-1.678-1.085zM189.096 229.15v8.172c0.183 0.22 0.409 0.404 0.676 0.55 0.264 0.147 0.534 0.26 0.809 0.341 0.275 0.084 0.547 0.145 0.815 0.182 0.264 0.037 0.479 0.055 0.644 0.055v0c0.624 0 1.152-0.134 1.585-0.402 0.429-0.264 0.778-0.626 1.045-1.084 0.264-0.459 0.457-0.987 0.578-1.585 0.117-0.594 0.176-1.231 0.176-1.909v0c0-1.633-0.325-2.953-0.974-3.963-0.653-1.009-1.612-1.513-2.878-1.513v0c-0.44 0-0.871 0.086-1.293 0.259-0.422 0.176-0.816 0.475-1.183 0.897zM201.34 238.78v0c-0.33-0.495-0.532-0.978-0.605-1.447-0.073-0.466-0.11-0.928-0.11-1.387v0l-0.055-7.512c-0.349-0.055-0.642-0.171-0.881-0.346-0.238-0.172-0.358-0.323-0.358-0.452v0c0-0.275 0.257-0.482 0.771-0.621 0.514-0.136 1.257-0.204 2.229-0.204v0c0.202 0 0.354 0.013 0.456 0.038 0.099 0.029 0.167 0.108 0.204 0.237v0 7.539c0 0.899 0.055 1.609 0.165 2.13 0.11 0.525 0.262 0.915 0.457 1.172 0.191 0.257 0.429 0.416 0.715 0.479 0.282 0.066 0.598 0.099 0.947 0.099v0c0.514 0 1.036-0.106 1.568-0.319 0.532-0.209 1.018-0.488 1.459-0.837v0-8.887c-0.422-0.055-0.816-0.152-1.184-0.292-0.367-0.136-0.55-0.305-0.55-0.506v0c0-0.275 0.293-0.482 0.881-0.622 0.587-0.136 1.44-0.204 2.559-0.204v0c0.147 0 0.275 0.018 0.385 0.055 0.11 0.037 0.183 0.128 0.22 0.276v0 11.226c0.165 0 0.281-0.033 0.347-0.099 0.062-0.062 0.249-0.094 0.561-0.094v0c0.385 0 0.578 0.138 0.578 0.413v0c0 0.073-0.055 0.187-0.165 0.341-0.11 0.158-0.27 0.314-0.479 0.468-0.213 0.158-0.479 0.297-0.798 0.418-0.323 0.117-0.695 0.176-1.117 0.176v0c-0.33 0-0.618-0.073-0.864-0.22-0.249-0.147-0.374-0.394-0.374-0.743v0-0.688c-0.55 0.477-1.128 0.871-1.734 1.184-0.605 0.312-1.33 0.468-2.174 0.467v0c-0.55 0-1.119-0.086-1.706-0.258-0.587-0.176-1.036-0.503-1.348-0.98zM214.795 237.707v0c0-0.514 0.193-1 0.578-1.458 0.385-0.459 0.816-0.871 1.293-1.238v0c-0.991-0.202-1.765-0.602-2.322-1.2-0.561-0.594-0.842-1.414-0.842-2.46v0c0-0.789 0.147-1.486 0.44-2.091 0.293-0.605 0.703-1.115 1.227-1.53 0.521-0.411 1.148-0.726 1.882-0.947 0.734-0.22 1.55-0.33 2.449-0.33v0c0.734 0 1.431 0.128 2.092 0.385v0c0.293-0.238 0.602-0.504 0.924-0.798 0.319-0.293 0.616-0.569 0.892-0.825 0.275-0.257 0.519-0.473 0.732-0.649 0.209-0.172 0.36-0.259 0.451-0.259v0c0.22 0 0.44 0.083 0.66 0.248 0.22 0.165 0.33 0.376 0.33 0.632v0c0 0.349-0.123 0.646-0.368 0.892-0.249 0.249-0.543 0.451-0.881 0.605-0.341 0.158-0.686 0.282-1.034 0.375-0.349 0.092-0.633 0.174-0.853 0.247v0c0.459 0.312 0.825 0.706 1.1 1.183 0.275 0.477 0.413 1.009 0.413 1.596v0c0 0.899-0.147 1.669-0.44 2.312-0.293 0.642-0.688 1.169-1.183 1.579-0.495 0.415-1.068 0.717-1.717 0.908-0.653 0.194-1.337 0.292-2.053 0.292v0h-0.661c-0.183 0.257-0.343 0.545-0.478 0.864-0.139 0.323-0.209 0.686-0.209 1.089v0c0 0.349 0.138 0.578 0.412 0.688 0.275 0.11 0.66 0.165 1.156 0.165v0c2.146 0.073 3.683 0.413 4.612 1.018 0.925 0.605 1.387 1.367 1.386 2.284v0c0 1.046-0.238 1.944-0.715 2.697-0.477 0.752-1.077 1.367-1.8 1.843-0.726 0.477-1.512 0.825-2.355 1.046-0.844 0.22-1.623 0.33-2.339 0.33v0c-1.468 0-2.563-0.361-3.285-1.084-0.726-0.726-1.09-1.677-1.09-2.851v0c0-0.477 0.083-0.912 0.248-1.304 0.165-0.396 0.382-0.745 0.649-1.046 0.264-0.305 0.558-0.57 0.881-0.798 0.319-0.231 0.644-0.429 0.974-0.594v0c-0.422-0.11-0.715-0.336-0.881-0.677-0.165-0.338-0.257-0.717-0.275-1.139zM218.923 233.8v0c0.88 0 1.583-0.193 2.107-0.578 0.521-0.385 0.781-1.073 0.782-2.064v0c0-1.101-0.321-1.935-0.963-2.504-0.642-0.569-1.422-0.853-2.339-0.853v0c-1.027 0-1.746 0.174-2.157 0.523-0.415 0.349-0.622 0.991-0.622 1.926v0c0 1.156 0.244 2.036 0.732 2.642 0.484 0.605 1.304 0.908 2.46 0.908zM215.483 242.522v0c0 0.917 0.284 1.656 0.853 2.218 0.569 0.558 1.541 0.836 2.917 0.837v0c0.734 0 1.321-0.073 1.761-0.221 0.44-0.147 0.776-0.361 1.007-0.643 0.227-0.286 0.378-0.653 0.451-1.101 0.073-0.451 0.11-0.98 0.11-1.585v0c0-0.679-0.449-1.242-1.348-1.689-0.899-0.451-2.247-0.704-4.045-0.76v0c-1.137 0.715-1.706 1.697-1.706 2.944zM235.542 238.01v-9.493h-1.156c-0.092-0.037-0.15-0.101-0.176-0.193-0.029-0.092-0.044-0.174-0.044-0.247v0c0-0.183 0.046-0.308 0.138-0.375 0.092-0.062 0.211-0.136 0.357-0.22 0.147-0.081 0.317-0.194 0.512-0.341 0.191-0.147 0.387-0.385 0.589-0.715v0c0.128-0.238 0.229-0.528 0.303-0.87 0.073-0.338 0.15-0.662 0.231-0.974 0.084-0.312 0.185-0.578 0.303-0.798 0.121-0.22 0.282-0.33 0.484-0.33v0c0.147 0 0.306 0.009 0.479 0.028 0.176 0.018 0.301 0.046 0.374 0.082v0 3.412h2.614c0.238 0 0.389 0.046 0.451 0.138 0.066 0.092 0.099 0.211 0.099 0.357v0c0 0.22-0.079 0.444-0.236 0.672-0.154 0.231-0.36 0.356-0.617 0.374v0h-2.311v7.016c0 0.66 0.009 1.174 0.027 1.541 0.018 0.367 0.068 0.642 0.149 0.826 0.084 0.183 0.213 0.297 0.385 0.341 0.176 0.048 0.429 0.072 0.76 0.071v0c0.257 0 0.526-0.051 0.809-0.154 0.286-0.099 0.585-0.149 0.897-0.148v0c0.275 0 0.431 0.068 0.467 0.203 0.037 0.139 0.055 0.227 0.055 0.265v0c0 0.22-0.138 0.422-0.412 0.605-0.275 0.183-0.62 0.339-1.035 0.468-0.411 0.128-0.864 0.226-1.359 0.291-0.495 0.062-0.954 0.094-1.376 0.094v0c-0.459 0-0.868-0.165-1.227-0.495-0.356-0.33-0.534-0.807-0.534-1.431zM242.669 239.028v0c0-0.092 0.059-0.18 0.176-0.264 0.121-0.081 0.264-0.158 0.429-0.231 0.165-0.073 0.33-0.141 0.495-0.204 0.165-0.066 0.284-0.117 0.358-0.154v0-16.73c-0.404-0.055-0.719-0.138-0.947-0.247-0.231-0.11-0.347-0.22-0.346-0.33v0c0-0.257 0.106-0.459 0.319-0.606 0.209-0.147 0.473-0.266 0.792-0.358 0.323-0.092 0.664-0.152 1.024-0.181 0.356-0.026 0.671-0.039 0.946-0.039v0c0.147 0 0.281 0.009 0.402 0.028 0.117 0.018 0.194 0.092 0.231 0.22v0 8.145c0.624-0.459 1.29-0.844 1.998-1.156 0.704-0.312 1.469-0.468 2.295-0.468v0c0.624 0 1.207 0.077 1.75 0.231 0.539 0.158 0.956 0.493 1.249 1.007v0h-0.055c0.367 0.459 0.583 0.93 0.649 1.415 0.062 0.488 0.094 0.961 0.094 1.42v0 7.016c0 0.275 0.11 0.462 0.33 0.561 0.22 0.103 0.462 0.178 0.726 0.226 0.268 0.044 0.512 0.103 0.732 0.176 0.22 0.073 0.33 0.229 0.331 0.468v0c0 0.092-0.073 0.215-0.221 0.369-0.147 0.158-0.385 0.237-0.715 0.236v0h-4.458c-0.22 0-0.363-0.064-0.429-0.192-0.062-0.128-0.094-0.248-0.093-0.358v0c0-0.092 0.059-0.18 0.176-0.264 0.121-0.081 0.264-0.154 0.429-0.22 0.165-0.062 0.327-0.127 0.484-0.193 0.154-0.062 0.268-0.112 0.341-0.149v0-6.576c0-1.284-0.22-2.192-0.66-2.724-0.44-0.532-1.027-0.798-1.761-0.798v0c-0.55 0-1.113 0.095-1.689 0.286-0.58 0.194-1.08 0.475-1.503 0.842v0 8.31c0 0.275 0.11 0.462 0.33 0.561 0.22 0.103 0.468 0.178 0.743 0.226 0.275 0.044 0.523 0.103 0.743 0.176 0.22 0.073 0.33 0.229 0.33 0.468v0c0 0.404-0.312 0.605-0.935 0.605v0h-4.568c-0.22 0-0.361-0.064-0.423-0.192-0.066-0.128-0.099-0.248-0.099-0.358zM257.637 234.02v0c0-1.064 0.147-2.054 0.44-2.972 0.293-0.917 0.712-1.715 1.255-2.394 0.539-0.679 1.2-1.216 1.981-1.612 0.778-0.393 1.644-0.589 2.598-0.589v0c1.046 0 1.88 0.205 2.504 0.617 0.624 0.415 1.106 0.943 1.447 1.584 0.338 0.642 0.561 1.343 0.671 2.103 0.11 0.763 0.174 1.502 0.193 2.217v0c0 0.275-0.119 0.431-0.358 0.468-0.238 0.037-0.486 0.055-0.743 0.055v0h-7.456c0.037 0.624 0.132 1.229 0.286 1.816 0.158 0.587 0.387 1.11 0.688 1.569 0.305 0.459 0.69 0.829 1.155 1.111 0.47 0.286 1.016 0.429 1.64 0.429v0c0.679 0 1.229-0.051 1.651-0.154 0.422-0.099 0.77-0.209 1.046-0.33 0.275-0.117 0.508-0.227 0.699-0.33 0.194-0.099 0.402-0.149 0.621-0.149v0c0.257 0 0.385 0.101 0.386 0.303v0c0 0.238-0.138 0.49-0.413 0.754-0.275 0.268-0.646 0.515-1.112 0.743-0.47 0.231-1.013 0.416-1.629 0.556-0.613 0.136-1.258 0.204-1.937 0.203v0c-0.972 0-1.812-0.165-2.52-0.495-0.704-0.33-1.286-0.77-1.745-1.321-0.459-0.55-0.798-1.189-1.018-1.915-0.22-0.723-0.33-1.479-0.33-2.267zM260.169 232.259l5.833-0.193c-0.018-0.569-0.064-1.104-0.138-1.607-0.073-0.506-0.211-0.943-0.412-1.309-0.202-0.367-0.495-0.66-0.881-0.881-0.385-0.22-0.89-0.33-1.513-0.33v0c-0.917 0-1.609 0.407-2.075 1.222-0.47 0.818-0.741 1.851-0.814 3.098zM282.649 239.853l-4.485-11.144-0.22-0.467c-0.349-0.037-0.648-0.119-0.897-0.248-0.246-0.128-0.369-0.358-0.369-0.688v0c0-0.073 0.061-0.147 0.181-0.22 0.117-0.073 0.305-0.11 0.562-0.11v0h3.852c0.22 0 0.382 0.073 0.484 0.22 0.099 0.147 0.149 0.284 0.149 0.413v0c0 0.202-0.134 0.343-0.402 0.424-0.264 0.084-0.58 0.154-0.946 0.209v0l3.026 8.475 2.229-6.302-0.633-1.706-0.22-0.467c-0.349-0.037-0.615-0.119-0.798-0.248-0.183-0.128-0.275-0.358-0.275-0.688v0c0-0.073 0.077-0.147 0.231-0.22 0.158-0.073 0.365-0.11 0.622-0.11v0h3.825c0.202 0 0.352 0.073 0.451 0.22 0.103 0.147 0.154 0.284 0.154 0.413v0c0 0.202-0.165 0.343-0.495 0.424-0.33 0.084-0.725 0.154-1.183 0.209v0l2.751 8.419 3.027-8.419c-0.183-0.037-0.398-0.07-0.644-0.099-0.249-0.026-0.49-0.062-0.721-0.11-0.227-0.044-0.424-0.103-0.589-0.177-0.165-0.073-0.248-0.156-0.247-0.247v0c0-0.128 0.046-0.266 0.137-0.413 0.092-0.147 0.238-0.22 0.44-0.22v0h3.88c0.257 0 0.449 0.037 0.578 0.11 0.128 0.073 0.193 0.147 0.193 0.22v0c0 0.33-0.141 0.559-0.424 0.688-0.286 0.128-0.613 0.211-0.98 0.248v0l-4.375 11.611h-1.21l-2.724-7.374-2.807 7.374zM297.012 233.8v0c0-0.936 0.138-1.844 0.413-2.724 0.275-0.88 0.688-1.666 1.238-2.356 0.55-0.686 1.238-1.236 2.064-1.65 0.825-0.411 1.779-0.616 2.861-0.617v0c0.991 0 1.838 0.193 2.543 0.578 0.708 0.385 1.282 0.884 1.722 1.497 0.44 0.616 0.761 1.306 0.963 2.069 0.202 0.759 0.303 1.515 0.303 2.267v0c0 0.44-0.037 0.912-0.11 1.415-0.073 0.506-0.193 1.007-0.358 1.502-0.165 0.495-0.38 0.967-0.644 1.414-0.268 0.451-0.604 0.851-1.007 1.2v0c-0.587 0.532-1.29 0.936-2.108 1.211-0.814 0.275-1.634 0.413-2.459 0.412v0c-0.752 0-1.458-0.128-2.119-0.385-0.66-0.257-1.233-0.646-1.717-1.166-0.488-0.525-0.873-1.172-1.156-1.943-0.286-0.77-0.429-1.678-0.429-2.724zM299.516 232.864v0c0 0.66 0.07 1.334 0.209 2.02 0.136 0.69 0.36 1.313 0.671 1.871 0.312 0.561 0.739 1.025 1.283 1.392 0.539 0.367 1.203 0.55 1.992 0.551v0c0.55 0 1.014-0.138 1.392-0.413 0.374-0.275 0.681-0.642 0.919-1.101 0.238-0.459 0.409-0.981 0.512-1.568 0.099-0.587 0.149-1.192 0.148-1.816v0c0-0.679-0.068-1.376-0.203-2.091-0.139-0.715-0.369-1.361-0.688-1.937-0.323-0.58-0.747-1.058-1.271-1.437-0.521-0.374-1.176-0.561-1.965-0.561v0c-0.55 0-1.018 0.147-1.403 0.44-0.385 0.293-0.692 0.682-0.919 1.167-0.231 0.488-0.402 1.035-0.512 1.64-0.11 0.605-0.165 1.22-0.165 1.843zM311.375 239.028v0c0-0.092 0.061-0.18 0.182-0.264 0.117-0.081 0.259-0.158 0.423-0.231 0.165-0.073 0.33-0.141 0.496-0.204 0.165-0.066 0.284-0.117 0.357-0.154v0-9.053c-0.367-0.073-0.743-0.193-1.128-0.357-0.385-0.165-0.578-0.312-0.578-0.441v0c0-0.183 0.11-0.372 0.331-0.567 0.22-0.191 0.49-0.36 0.809-0.506 0.323-0.147 0.668-0.271 1.034-0.374 0.367-0.099 0.688-0.149 0.963-0.149v0c0.147 0 0.284 0.018 0.413 0.055 0.128 0.037 0.211 0.11 0.248 0.221v0 2.558c0.385-0.862 0.884-1.596 1.496-2.201 0.616-0.605 1.337-0.908 2.163-0.908v0c0.165 0 0.371 0.028 0.617 0.083 0.249 0.055 0.499 0.16 0.748 0.313 0.246 0.158 0.455 0.374 0.627 0.65 0.176 0.275 0.264 0.624 0.265 1.045v0c0 0.165-0.055 0.325-0.166 0.479-0.11 0.158-0.248 0.295-0.412 0.413-0.165 0.121-0.345 0.222-0.54 0.303-0.191 0.084-0.378 0.136-0.561 0.154v0c-0.147 0-0.271-0.033-0.374-0.099-0.099-0.062-0.167-0.222-0.204-0.479v0c-0.092-0.422-0.226-0.697-0.401-0.826-0.172-0.128-0.433-0.193-0.782-0.192v0c-0.257 0-0.514 0.128-0.77 0.385-0.257 0.257-0.49 0.574-0.699 0.952-0.213 0.374-0.387 0.767-0.523 1.178-0.139 0.415-0.209 0.778-0.209 1.089v0 5.696c0 0.257 0.138 0.426 0.413 0.506 0.275 0.084 0.574 0.149 0.897 0.193 0.319 0.048 0.611 0.112 0.875 0.193 0.268 0.084 0.402 0.246 0.401 0.484v0c0 0.404-0.312 0.605-0.935 0.605v0h-4.953c-0.22 0-0.363-0.064-0.429-0.192-0.062-0.128-0.094-0.248-0.094-0.358zM321.996 239.028v0c0-0.092 0.059-0.18 0.176-0.264 0.121-0.081 0.264-0.158 0.43-0.231 0.165-0.073 0.33-0.141 0.495-0.204 0.165-0.066 0.284-0.117 0.358-0.154v0-16.73c-0.404-0.055-0.748-0.138-1.035-0.247-0.282-0.11-0.424-0.22-0.424-0.33v0c0-0.257 0.11-0.459 0.33-0.606 0.22-0.147 0.49-0.266 0.809-0.358 0.323-0.092 0.662-0.152 1.018-0.181 0.36-0.026 0.686-0.039 0.98-0.039v0c0.349 0 0.559 0.083 0.633 0.248v0 17.61c0 0.275 0.101 0.462 0.302 0.561 0.202 0.103 0.426 0.178 0.672 0.226 0.249 0.044 0.475 0.103 0.677 0.176 0.202 0.073 0.303 0.229 0.302 0.468v0c0 0.404-0.312 0.605-0.935 0.605v0h-4.265c-0.22 0-0.363-0.064-0.429-0.192-0.062-0.128-0.094-0.248-0.094-0.358zM328.958 234.213v0c0-0.899 0.141-1.812 0.423-2.741 0.286-0.925 0.717-1.759 1.294-2.504 0.58-0.741 1.304-1.346 2.173-1.816 0.873-0.466 1.906-0.699 3.099-0.699v0c0.77 0 1.486 0.101 2.146 0.303v0l-0.138-2.532v-2.586c-0.202-0.037-0.431-0.073-0.688-0.11-0.257-0.037-0.495-0.083-0.715-0.138-0.22-0.055-0.409-0.11-0.567-0.165-0.154-0.055-0.231-0.11-0.231-0.165v0c0-0.238 0.114-0.444 0.341-0.616 0.231-0.176 0.534-0.319 0.908-0.429 0.378-0.11 0.796-0.193 1.255-0.248 0.459-0.055 0.917-0.083 1.376-0.083v0c0.128 0 0.257 0.009 0.385 0.028 0.128 0.018 0.211 0.092 0.248 0.22v0 18.463c0.183 0 0.376-0.033 0.577-0.099 0.202-0.062 0.413-0.094 0.633-0.094v0c0.165 0 0.275 0.037 0.33 0.11 0.055 0.073 0.083 0.174 0.083 0.303v0c0 0.073-0.064 0.187-0.193 0.341-0.128 0.158-0.308 0.314-0.539 0.468-0.227 0.158-0.506 0.297-0.836 0.418-0.33 0.117-0.706 0.176-1.129 0.176v0c-0.734 0-1.101-0.321-1.1-0.963v0-0.715c-0.514 0.532-1.073 0.945-1.679 1.238-0.605 0.293-1.339 0.44-2.201 0.44v0c-0.679 0-1.335-0.132-1.97-0.396-0.631-0.268-1.191-0.649-1.678-1.144-0.484-0.495-0.873-1.101-1.167-1.816-0.293-0.715-0.44-1.532-0.44-2.449zM335.424 238.505v0c0.404 0 0.835-0.088 1.293-0.264 0.459-0.172 0.88-0.433 1.266-0.782v0l-0.028-8.364c-0.165-0.238-0.376-0.427-0.633-0.567-0.257-0.136-0.528-0.24-0.814-0.314-0.282-0.073-0.561-0.119-0.837-0.137-0.275-0.018-0.504-0.028-0.687-0.028v0c-1.229 0-2.097 0.431-2.603 1.293-0.503 0.862-0.754 2.1-0.754 3.715v0c0 1.614 0.316 2.926 0.946 3.935 0.635 1.009 1.585 1.513 2.851 1.513zM346.127 234.02l-0.715-14.638c0.312-0.238 0.697-0.358 1.156-0.358v0c0.349 0 0.673 0.046 0.974 0.138 0.305 0.092 0.521 0.165 0.649 0.22v0l-0.358 14.803c-0.11 0.11-0.312 0.165-0.605 0.165v0c-0.183 0-0.376-0.028-0.578-0.082-0.202-0.055-0.376-0.138-0.523-0.248zM345.164 238.89v0c0-0.165 0.046-0.349 0.138-0.55 0.092-0.202 0.207-0.391 0.347-0.567 0.136-0.172 0.299-0.323 0.489-0.451 0.194-0.128 0.383-0.193 0.567-0.193v0c0.44 0 0.807 0.04 1.101 0.121 0.293 0.084 0.523 0.191 0.688 0.32 0.165 0.128 0.281 0.27 0.346 0.423 0.062 0.158 0.094 0.301 0.094 0.43v0c0 0.165-0.051 0.339-0.154 0.522-0.099 0.183-0.226 0.358-0.38 0.523-0.158 0.165-0.332 0.299-0.523 0.402-0.194 0.099-0.393 0.149-0.594 0.148v0c-0.422 0-0.77-0.046-1.046-0.137-0.275-0.092-0.492-0.202-0.649-0.33-0.154-0.128-0.262-0.257-0.325-0.386-0.066-0.128-0.099-0.22-0.099-0.275z" fill="#ef5b2a" fill-rule="nonzero" stroke="none" stroke-width="1" stroke-linecap="butt" stroke-linejoin="miter" stroke-miterlimit="10" stroke-dasharray="" stroke-dashoffset="0" font-family="none" font-weight="none" font-size="none" text-anchor="none" style="mix-blend-mode: normal" data-fill-palette-color="secondary" id="text-1"></path></g></g><g transform="matrix(1,0,0,1,29.33176499999999,47.824088220024734)"><svg viewBox="0 0 316.416 144.12768355995055" height="144.12768355995055" width="316.416"><g><svg viewBox="0 0 316.416 144.12768355995055" height="144.12768355995055" width="316.416"><g><svg viewBox="0 0 316.416 144.12768355995055" height="144.12768355995055" width="316.416"><g><svg viewBox="0 0 316.416 144.12768355995055" height="144.12768355995055" width="316.416"><g id="textblocktransform"><svg viewBox="0 0 316.416 144.12768355995055" height="144.12768355995055" width="316.416" id="textblock"><g><svg viewBox="0 0 316.416 144.12768355995055" height="144.12768355995055" width="316.416"><g transform="matrix(1,0,0,1,0,0)"><svg width="316.416" viewBox="2.59 -35.5 79 35.99" height="144.12768355995055" data-palette-color="#ef5b2a"><path d="M40.43-20.85L40.43-14.16Q40.43-10.96 39.33-8.28 38.23-5.59 36.28-3.64 34.33-1.68 31.65-0.6 28.98 0.49 25.83 0.49L25.83 0.49 17.24 0.49Q14.09 0.49 11.4-0.6 8.72-1.68 6.76-3.64 4.81-5.59 3.7-8.28 2.59-10.96 2.59-14.16L2.59-14.16 2.59-20.85Q2.59-24.02 3.7-26.72 4.81-29.42 6.76-31.36 8.72-33.3 11.4-34.4 14.09-35.5 17.24-35.5L17.24-35.5 25.83-35.5Q28.98-35.5 31.65-34.4 34.33-33.3 36.28-31.36 38.23-29.42 39.33-26.72 40.43-24.02 40.43-20.85L40.43-20.85ZM34.08-14.16L34.08-20.85Q34.08-22.73 33.48-24.26 32.89-25.78 31.8-26.87 30.71-27.95 29.19-28.55 27.66-29.15 25.83-29.15L25.83-29.15 17.24-29.15Q15.38-29.15 13.85-28.55 12.33-27.95 11.23-26.87 10.13-25.78 9.53-24.26 8.94-22.73 8.94-20.85L8.94-20.85 8.94-14.16Q8.94-12.28 9.53-10.75 10.13-9.23 11.23-8.14 12.33-7.06 13.85-6.46 15.38-5.86 17.24-5.86L17.24-5.86 25.78-5.86Q27.64-5.86 29.16-6.46 30.69-7.06 31.79-8.14 32.89-9.23 33.48-10.75 34.08-12.28 34.08-14.16L34.08-14.16ZM81.59-23.24L81.59-20.36Q81.59-18.19 81.05-16.48 80.52-14.77 79.6-13.46 78.68-12.16 77.49-11.23 76.29-10.3 74.99-9.72 73.68-9.13 72.35-8.86 71.02-8.59 69.85-8.59L69.85-8.59 55.49-8.59 55.49-14.94 69.85-14.94Q71.07-15.04 72.06-15.44 73.04-15.84 73.75-16.53 74.46-17.21 74.85-18.18 75.24-19.14 75.24-20.36L75.24-20.36 75.24-23.24Q75.12-24.44 74.73-25.44 74.34-26.44 73.67-27.15 73-27.86 72.04-28.26 71.09-28.66 69.85-28.66L69.85-28.66 55.54-28.66Q54.27-28.66 53.61-28 52.95-27.34 52.95-26.1L52.95-26.1 52.95 0 46.6 0 46.6-26.1Q46.6-28.54 47.5-30.25 48.39-31.96 49.72-33.01 51.05-34.06 52.61-34.53 54.17-35.01 55.49-35.01L55.49-35.01 69.85-35.01Q71.99-35.01 73.7-34.46 75.41-33.91 76.72-33 78.02-32.08 78.94-30.88 79.86-29.69 80.45-28.38 81.05-27.08 81.32-25.74 81.59-24.41 81.59-23.24L81.59-23.24Z" opacity="1" transform="matrix(1,0,0,1,0,0)" fill="#ef5b2a" class="wordmark-text-0" data-fill-palette-color="primary" id="text-0"></path></svg></g></svg></g></svg></g></svg></g></svg></g></svg></g></svg></g></svg></g><defs></defs></svg><rect width="375.07953" height="239.77586000000002" fill="none" stroke="none" visibility="hidden"></rect></g></svg></g></svg>